{
  "asset": {
    "generator": "Khronos glTF Blender I/O v0.9.36",
    "version": "2.0"
  },
  "scene": 0,
  "scenes": [
    {
      "name": "Scene",
      "nodes": [
        0
      ]
    }
  ],
  "nodes": [
    {
      "mesh": 0,
      "name": "hex_forest_waterA_detail"
    }
  ],
  "materials": [
    {
      "name": "Green",
      "pbrMetallicRoughness": {
        "baseColorFactor": [
          0.0653415098786354,
          0.5005427598953247,
          0.2656450867652893,
          1
        ],
        "metallicFactor": 0,
        "roughnessFactor": 0.4000000059604645
      }
    },
    {
      "name": "BrownDark",
      "pbrMetallicRoughness": {
        "baseColorFactor": [
          0.32694560289382935,
          0.10152623057365417,
          0.05927089974284172,
          1
        ],
        "metallicFactor": 0,
        "roughnessFactor": 0.4000000059604645
      }
    },
    {
      "alphaMode": "BLEND",
      "doubleSided": true,
      "name": "Water",
      "pbrMetallicRoughness": {
        "baseColorFactor": [
          0.06462205201387405,
          0.6740851402282715,
          0.7510285377502441,
          1
        ],
        "metallicFactor": 0,
        "roughnessFactor": 0.13025973737239838
      }
    }
  ],
  "meshes": [
    {
      "name": "Cylinder.977",
      "primitives": [
        {
          "attributes": {
            "POSITION": 0,
            "NORMAL": 1,
            "TEXCOORD_0": 2
          },
          "indices": 3,
          "material": 0
        },
        {
          "attributes": {
            "POSITION": 4,
            "NORMAL": 5,
            "TEXCOORD_0": 6
          },
          "indices": 7,
          "material": 1
        },
        {
          "attributes": {
            "POSITION": 8,
            "NORMAL": 9,
            "TEXCOORD_0": 10
          },
          "indices": 11,
          "material": 2
        }
      ]
    }
  ],
  "accessors": [
    {
      "bufferView": 0,
      "componentType": 5126,
      "count": 69,
      "max": [
        0,
        1,
        0.5773499011993408
      ],
      "min": [
        -1,
        0.5,
        -1.1547000408172607
      ],
      "type": "VEC3"
    },
    {
      "bufferView": 1,
      "componentType": 5126,
      "count": 69,
      "type": "VEC3"
    },
    {
      "bufferView": 2,
      "componentType": 5126,
      "count": 69,
      "type": "VEC2"
    },
    {
      "bufferView": 3,
      "componentType": 5123,
      "count": 192,
      "type": "SCALAR"
    },
    {
      "bufferView": 4,
      "componentType": 5126,
      "count": 50,
      "max": [
        1,
        0.5,
        1.1547000408172607
      ],
      "min": [
        -1,
        0,
        -1.1547000408172607
      ],
      "type": "VEC3"
    },
    {
      "bufferView": 5,
      "componentType": 5126,
      "count": 50,
      "type": "VEC3"
    },
    {
      "bufferView": 6,
      "componentType": 5126,
      "count": 50,
      "type": "VEC2"
    },
    {
      "bufferView": 7,
      "componentType": 5123,
      "count": 96,
      "type": "SCALAR"
    },
    {
      "bufferView": 8,
      "componentType": 5126,
      "count": 32,
      "max": [
        1,
        0.9000000357627869,
        1.1547000408172607
      ],
      "min": [
        -1,
        0.5,
        -1.1547000408172607
      ],
      "type": "VEC3"
    },
    {
      "bufferView": 9,
      "componentType": 5126,
      "count": 32,
      "type": "VEC3"
    },
    {
      "bufferView": 10,
      "componentType": 5126,
      "count": 32,
      "type": "VEC2"
    },
    {
      "bufferView": 11,
      "componentType": 5123,
      "count": 66,
      "type": "SCALAR"
    }
  ],
  "bufferViews": [
    {
      "buffer": 0,
      "byteLength": 828,
      "byteOffset": 0
    },
    {
      "buffer": 0,
      "byteLength": 828,
      "byteOffset": 828
    },
    {
      "buffer": 0,
      "byteLength": 552,
      "byteOffset": 1656
    },
    {
      "buffer": 0,
      "byteLength": 384,
      "byteOffset": 2208
    },
    {
      "buffer": 0,
      "byteLength": 600,
      "byteOffset": 2592
    },
    {
      "buffer": 0,
      "byteLength": 600,
      "byteOffset": 3192
    },
    {
      "buffer": 0,
      "byteLength": 400,
      "byteOffset": 3792
    },
    {
      "buffer": 0,
      "byteLength": 192,
      "byteOffset": 4192
    },
    {
      "buffer": 0,
      "byteLength": 384,
      "byteOffset": 4384
    },
    {
      "buffer": 0,
      "byteLength": 384,
      "byteOffset": 4768
    },
    {
      "buffer": 0,
      "byteLength": 256,
      "byteOffset": 5152
    },
    {
      "buffer": 0,
      "byteLength": 132,
      "byteOffset": 5408
    }
  ],
  "buffers": [
    {
      "uri": "hex_forest_waterA_detail.gltf_data.bin",
      "byteLength": 5540
    }
  ]
}